<svg width="24" height="29" viewBox="0 0 24 29" fill="none" xmlns="http://www.w3.org/2000/svg">
<path d="M20 27.9999C20.5523 27.9999 21 27.4315 21 26.7303C21 26.0291 20.5523 25.4607 20 25.4607C19.4477 25.4607 19 26.0291 19 26.7303C19 27.4315 19.4477 27.9999 20 27.9999Z" stroke="white" stroke-width="2" stroke-linecap="round" stroke-linejoin="round"/>
<path d="M9 27.9999C9.55228 27.9999 10 27.4315 10 26.7303C10 26.0291 9.55228 25.4607 9 25.4607C8.44772 25.4607 8 26.0291 8 26.7303C8 27.4315 8.44772 27.9999 9 27.9999Z" stroke="white" stroke-width="2" stroke-linecap="round" stroke-linejoin="round"/>
<path d="M1 1.33813H5L7.68 18.3382C7.77144 18.9228 8.02191 19.4478 8.38755 19.8215C8.75318 20.1952 9.2107 20.3937 9.68 20.3823H19.4C19.8693 20.3937 20.3268 20.1952 20.6925 19.8215C21.0581 19.4478 21.3086 18.9228 21.4 18.3382L23 7.68619H6" stroke="white" stroke-width="2" stroke-linecap="round" stroke-linejoin="round"/>
</svg>
