<svg width="22" height="27" viewBox="0 0 22 27" fill="none" xmlns="http://www.w3.org/2000/svg">
<rect width="22" height="25.7578" transform="translate(0 0.444092)" fill="white"/>
<path d="M0 6.88354C0 5.10515 1.23105 3.66382 2.75 3.66382H19.25C20.7668 3.66382 22 5.10515 22 6.88354V19.7625C22 21.5383 20.7668 22.9822 19.25 22.9822H2.75C1.23105 22.9822 0 21.5383 0 19.7625V6.88354ZM2.0625 6.88354V7.99536L9.47461 15.119C10.3598 15.9742 11.6402 15.9742 12.5254 15.119L19.9375 7.99536V6.83827C19.9375 6.44083 19.6281 6.03334 19.25 6.03334H2.75C2.37016 6.03334 2.0625 6.44083 2.0625 6.83827V6.88354ZM2.0625 11.1195V19.7625C2.0625 20.2052 2.37016 20.5674 2.75 20.5674H19.25C19.6281 20.5674 19.9375 20.2052 19.9375 19.7625V11.1195L13.8359 16.9854C12.1859 18.5701 9.81406 18.5701 8.12539 16.9854L2.0625 11.1195Z" fill="#CFCFCF"/>
</svg>
