<svg width="29" height="29" viewBox="0 0 29 29" fill="none" xmlns="http://www.w3.org/2000/svg">
<g clip-path="url(#clip0_126_468)">
<path d="M28.2131 0.985414C28.7851 1.36365 29.0853 2.01746 28.9777 2.67128L25.3527 25.1494C25.2677 25.6736 24.9336 26.1328 24.4465 26.3922C23.9593 26.6516 23.3759 26.684 22.8605 26.4787L15.7068 23.6419L13.4355 27.6674C13.141 28.1915 12.5123 28.4563 11.9062 28.3104C11.3002 28.1645 10.8754 27.6458 10.8754 27.0514V21.8642C10.8754 21.5778 10.9773 21.2968 11.1642 21.0699L20.5269 9.58223C20.6685 9.19859 20.1588 8.80954 19.7906 9.12834L9.65192 17.8765L7.83942 19.438C7.31833 19.8865 6.57634 20.0108 5.92497 19.7514L1.11052 17.8386C0.476143 17.5847 0.0456746 17.0119 0.00602619 16.3527C-0.0336222 15.6935 0.31755 15.0721 0.91794 14.7425L26.2929 0.909767C26.899 0.580159 27.6467 0.61258 28.2187 0.985414H28.2131Z" fill="white"/>
</g>
<defs>
<clipPath id="clip0_126_468">
<rect width="29" height="27.6654" fill="white" transform="translate(0 0.682861)"/>
</clipPath>
</defs>
</svg>
