<svg width="28" height="30" viewBox="0 0 28 30" fill="none" xmlns="http://www.w3.org/2000/svg">
<path d="M6 2L2 7.33333V26C2 26.7072 2.28095 27.3855 2.78105 27.8856C3.28115 28.3857 3.95942 28.6667 4.66667 28.6667H23.3333C24.0406 28.6667 24.7189 28.3857 25.219 27.8856C25.719 27.3855 26 26.7072 26 26V7.33333L22 2H6Z" stroke="black" stroke-width="2.66667" stroke-linecap="round" stroke-linejoin="round"/>
<path d="M19.3334 12.6666C19.3334 14.0811 18.7715 15.4376 17.7713 16.4378C16.7711 17.438 15.4145 17.9999 14 17.9999C12.5855 17.9999 11.229 17.438 10.2288 16.4378C9.22859 15.4376 8.66669 14.0811 8.66669 12.6666" stroke="black" stroke-width="2.66667" stroke-linecap="round" stroke-linejoin="round"/>
<path d="M2 7.33325H26" stroke="black" stroke-width="2.66667" stroke-linecap="round" stroke-linejoin="round"/>
</svg>
