<svg width="37" height="37" viewBox="0 0 37 37" fill="none" xmlns="http://www.w3.org/2000/svg">
<g filter="url(#filter0_d_75_226)">
<path d="M18.5 28C25.9558 28 32 21.9558 32 14.5C32 7.04416 25.9558 1 18.5 1C11.0442 1 5 7.04416 5 14.5C5 21.9558 11.0442 28 18.5 28Z" stroke="black" stroke-width="2" stroke-linecap="round" stroke-linejoin="round"/>
<path d="M18.5 19.9C21.4823 19.9 23.9 17.4823 23.9 14.5C23.9 11.5177 21.4823 9.10001 18.5 9.10001C15.5176 9.10001 13.1 11.5177 13.1 14.5C13.1 17.4823 15.5176 19.9 18.5 19.9Z" stroke="black" stroke-width="2" stroke-linecap="round" stroke-linejoin="round"/>
<path d="M22.3204 18.3204L28.0444 24.0444" stroke="black" stroke-width="2" stroke-linecap="round" stroke-linejoin="round"/>
<path d="M8.95557 24.0444L14.6796 18.3204" stroke="black" stroke-width="2" stroke-linecap="round" stroke-linejoin="round"/>
<path d="M22.3204 10.6795L27.0859 5.91403" stroke="black" stroke-width="2" stroke-linecap="round" stroke-linejoin="round"/>
<path d="M8.95557 4.95557L14.6796 10.6796" stroke="black" stroke-width="2" stroke-linecap="round" stroke-linejoin="round"/>
</g>
<defs>
<filter id="filter0_d_75_226" x="0" y="0" width="37" height="37" filterUnits="userSpaceOnUse" color-interpolation-filters="sRGB">
<feFlood flood-opacity="0" result="BackgroundImageFix"/>
<feColorMatrix in="SourceAlpha" type="matrix" values="0 0 0 0 0 0 0 0 0 0 0 0 0 0 0 0 0 0 127 0" result="hardAlpha"/>
<feOffset dy="4"/>
<feGaussianBlur stdDeviation="2"/>
<feComposite in2="hardAlpha" operator="out"/>
<feColorMatrix type="matrix" values="0 0 0 0 0 0 0 0 0 0 0 0 0 0 0 0 0 0 0.25 0"/>
<feBlend mode="normal" in2="BackgroundImageFix" result="effect1_dropShadow_75_226"/>
<feBlend mode="normal" in="SourceGraphic" in2="effect1_dropShadow_75_226" result="shape"/>
</filter>
</defs>
</svg>
