<svg width="35" height="29" viewBox="0 0 35 29" fill="none" xmlns="http://www.w3.org/2000/svg">
<path d="M26.6591 27C28.6046 27 30.1818 25.4228 30.1818 23.4773C30.1818 21.5317 28.6046 19.9545 26.6591 19.9545C24.7135 19.9545 23.1364 21.5317 23.1364 23.4773C23.1364 25.4228 24.7135 27 26.6591 27Z" stroke="black" stroke-width="2.81818" stroke-linecap="round" stroke-linejoin="round"/>
<path d="M8.34096 27C10.2865 27 11.8637 25.4228 11.8637 23.4773C11.8637 21.5317 10.2865 19.9545 8.34096 19.9545C6.39542 19.9545 4.81824 21.5317 4.81824 23.4773C4.81824 25.4228 6.39542 27 8.34096 27Z" stroke="black" stroke-width="2.81818" stroke-linecap="round" stroke-linejoin="round"/>
<path d="M23.1364 8.68182H28.7727L33 12.9091V19.9546H23.1364V8.68182Z" stroke="black" stroke-width="2.81818" stroke-linecap="round" stroke-linejoin="round"/>
<path d="M23.1364 1.63635H2V19.9545H23.1364V1.63635Z" stroke="black" stroke-width="2.81818" stroke-linecap="round" stroke-linejoin="round"/>
</svg>
