<svg width="262" height="176" viewBox="0 0 262 176" fill="none" xmlns="http://www.w3.org/2000/svg">
<ellipse opacity="0.3" cx="4.5" cy="4" rx="4.5" ry="4" fill="#35736E"/>
<ellipse opacity="0.3" cx="40.5" cy="4" rx="4.5" ry="4" fill="#35736E"/>
<circle opacity="0.3" cx="76" cy="4" r="4" fill="#35736E"/>
<circle opacity="0.3" cx="112" cy="4" r="4" fill="#35736E"/>
<circle opacity="0.3" cx="148" cy="4" r="4" fill="#35736E"/>
<circle opacity="0.3" cx="184" cy="4" r="4" fill="#35736E"/>
<circle opacity="0.3" cx="220" cy="4" r="4" fill="#35736E"/>
<circle opacity="0.3" cx="256" cy="4" r="4" fill="#35736E"/>
<ellipse opacity="0.3" cx="4.5" cy="28" rx="4.5" ry="4" fill="#35736E"/>
<ellipse opacity="0.3" cx="40.5" cy="28" rx="4.5" ry="4" fill="#35736E"/>
<circle opacity="0.3" cx="76" cy="28" r="4" fill="#35736E"/>
<circle opacity="0.3" cx="112" cy="28" r="4" fill="#35736E"/>
<circle opacity="0.3" cx="148" cy="28" r="4" fill="#35736E"/>
<circle opacity="0.3" cx="184" cy="28" r="4" fill="#35736E"/>
<circle opacity="0.3" cx="220" cy="28" r="4" fill="#35736E"/>
<circle opacity="0.3" cx="256" cy="28" r="4" fill="#35736E"/>
<ellipse opacity="0.3" cx="4.5" cy="52" rx="4.5" ry="4" fill="#35736E"/>
<ellipse opacity="0.3" cx="40.5" cy="52" rx="4.5" ry="4" fill="#35736E"/>
<circle opacity="0.3" cx="76" cy="52" r="4" fill="#35736E"/>
<circle opacity="0.3" cx="112" cy="52" r="4" fill="#35736E"/>
<circle opacity="0.3" cx="148" cy="52" r="4" fill="#35736E"/>
<circle opacity="0.3" cx="184" cy="52" r="4" fill="#35736E"/>
<circle opacity="0.3" cx="220" cy="52" r="4" fill="#35736E"/>
<circle opacity="0.3" cx="256" cy="52" r="4" fill="#35736E"/>
<ellipse opacity="0.3" cx="4.5" cy="76" rx="4.5" ry="4" fill="#35736E"/>
<ellipse opacity="0.3" cx="40.5" cy="76" rx="4.5" ry="4" fill="#35736E"/>
<circle opacity="0.3" cx="76" cy="76" r="4" fill="#35736E"/>
<circle opacity="0.3" cx="112" cy="76" r="4" fill="#35736E"/>
<circle opacity="0.3" cx="148" cy="76" r="4" fill="#35736E"/>
<circle opacity="0.3" cx="184" cy="76" r="4" fill="#35736E"/>
<circle opacity="0.3" cx="220" cy="76" r="4" fill="#35736E"/>
<circle opacity="0.3" cx="256" cy="76" r="4" fill="#35736E"/>
<ellipse opacity="0.3" cx="4.5" cy="100" rx="4.5" ry="4" fill="#35736E"/>
<ellipse opacity="0.3" cx="40.5" cy="100" rx="4.5" ry="4" fill="#35736E"/>
<circle opacity="0.3" cx="76" cy="100" r="4" fill="#35736E"/>
<circle opacity="0.3" cx="112" cy="100" r="4" fill="#35736E"/>
<circle opacity="0.3" cx="148" cy="100" r="4" fill="#35736E"/>
<circle opacity="0.3" cx="184" cy="100" r="4" fill="#35736E"/>
<circle opacity="0.3" cx="220" cy="100" r="4" fill="#35736E"/>
<circle opacity="0.3" cx="256" cy="100" r="4" fill="#35736E"/>
<ellipse opacity="0.3" cx="4.5" cy="124" rx="4.5" ry="4" fill="#35736E"/>
<ellipse opacity="0.3" cx="40.5" cy="124" rx="4.5" ry="4" fill="#35736E"/>
<circle opacity="0.3" cx="76" cy="124" r="4" fill="#35736E"/>
<circle opacity="0.3" cx="112" cy="124" r="4" fill="#35736E"/>
<circle opacity="0.3" cx="148" cy="124" r="4" fill="#35736E"/>
<circle opacity="0.3" cx="184" cy="124" r="4" fill="#35736E"/>
<circle opacity="0.3" cx="220" cy="124" r="4" fill="#35736E"/>
<circle opacity="0.3" cx="256" cy="124" r="4" fill="#35736E"/>
<ellipse opacity="0.3" cx="4.5" cy="148" rx="4.5" ry="4" fill="#35736E"/>
<ellipse opacity="0.3" cx="41.5" cy="148" rx="4.5" ry="4" fill="#35736E"/>
<circle opacity="0.3" cx="78" cy="148" r="4" fill="#35736E"/>
<circle opacity="0.3" cx="114" cy="148" r="4" fill="#35736E"/>
<circle opacity="0.3" cx="150" cy="148" r="4" fill="#35736E"/>
<circle opacity="0.3" cx="186" cy="148" r="4" fill="#35736E"/>
<circle opacity="0.3" cx="222" cy="148" r="4" fill="#35736E"/>
<circle opacity="0.3" cx="258" cy="148" r="4" fill="#35736E"/>
<ellipse opacity="0.3" cx="4.5" cy="172" rx="4.5" ry="4" fill="#35736E"/>
<ellipse opacity="0.3" cx="41.5" cy="172" rx="4.5" ry="4" fill="#35736E"/>
<circle opacity="0.3" cx="78" cy="172" r="4" fill="#35736E"/>
<circle opacity="0.3" cx="114" cy="172" r="4" fill="#35736E"/>
<circle opacity="0.3" cx="150" cy="172" r="4" fill="#35736E"/>
<circle opacity="0.3" cx="186" cy="172" r="4" fill="#35736E"/>
<circle opacity="0.3" cx="222" cy="172" r="4" fill="#35736E"/>
<circle opacity="0.3" cx="258" cy="172" r="4" fill="#35736E"/>
</svg>
